     <!-- Generator: Adobe Illustrator 23.0.2, SVG Export Plug-In . SVG Version: 6.00 Build 0)  --><svg xmlns="http://www.w3.org/2000/svg" xmlns:xlink="http://www.w3.org/1999/xlink" version="1.1" id="Layer_1" x="0px" y="0px" viewBox="0 0 890.5 375.3" style="enable-background:new 0 0 890.5 375.3;" xml:space="preserve">
<style type="text/css">
	.st0{fill:#D1D5DA;}
	.st1{fill:#3D3D3D;}
	.st2{fill:#959DA4;}
	.st3{fill:#586069;}
	.st4{fill:#6A737D;}
	.st5{fill:#DCA82D;}
	.st6{fill:#B18621;}
	.st7{fill:#FFDD6A;}
	.st8{fill:#FFE888;}
	.st9{fill:#C6E2FD;}
	.st10{fill:#FAC237;}
	.st11{opacity:0.3;fill:#E55B22;enable-background:new    ;}
	.st12{fill:#FFD050;}
	.st13{fill:#014486;}
	.st14{fill:#0260C1;}
	.st15{fill:#71603B;}
	.st16{fill:#77BAFC;}
	.st17{fill:#036AD2;}
	.st18{fill:#178CFA;}
	.st19{fill:#DAEEFE;}
	.st20{opacity:0.3;fill:#F6F8FA;enable-background:new    ;}
	.st21{fill:none;stroke:#FAC237;stroke-width:2;stroke-linecap:round;stroke-miterlimit:10;}
	.st22{fill:#FFCFAF;}
	.st23{fill:none;stroke:#0260C1;stroke-linecap:round;stroke-miterlimit:10;}
	.st24{fill:none;stroke:#71603B;stroke-width:2;stroke-linecap:round;stroke-miterlimit:10;}
	.st25{fill:none;stroke:#B9BDC1;stroke-width:5;stroke-linecap:round;stroke-miterlimit:10;}
	.st26{fill:none;stroke:#92989D;stroke-width:3;stroke-linecap:round;stroke-miterlimit:10;}
	.st27{fill:#92989D;}
	.st28{fill:#B9BDC1;}
	.st29{fill:#ADB1B4;}
	.st30{fill:#686868;}
	.st31{fill:#FAFBFC;}
	.st32{fill:#E1E4E8;}
	.st33{fill:none;stroke:#F86324;stroke-width:2;stroke-miterlimit:10;}
	.st34{fill:none;stroke:#178CFA;stroke-width:3;stroke-miterlimit:10;}
	.st35{fill:none;stroke:#022F60;stroke-width:2;stroke-miterlimit:10;}
	.st36{fill:#494949;}
	.st37{fill:#FFFADF;}
	.st38{fill:#7E7E7E;}
	.st39{fill:#4B4B4B;}
	.st40{fill:none;stroke:#036AD2;stroke-width:2;stroke-miterlimit:10;}
</style>
<path class="st0" d="M318.9,315.3l-34,33l3,4.7l2.9,0.3l32.1-35.3L318.9,315.3z"></path>
<path class="st1" d="M308.9,362.3l-7.3-1.3l-1.5-3.7l44.3-40l-0.8,7.3L308.9,362.3z"></path>
<path class="st2" d="M322.3,315.1l-34,33.2l2.5,5l34.8-35L322.3,315.1z"></path>
<path class="st3" d="M300,357.3l8,1l27.2-26.5l-6-2.5L300,357.3z"></path>
<path class="st4" d="M331.6,310.7l-29.6,26.8l11.2,9.5l33.1-33.1C342,310.7,334.2,308.7,331.6,310.7L331.6,310.7z"></path>
<path class="st3" d="M346.5,313.9L313.3,347l4.7,4c13-9,20.5-23.2,29.9-36c-0.4-0.4-0.8-0.7-1.3-1  C346.5,313.9,346.5,313.9,346.5,313.9L346.5,313.9z"></path>
<path class="st4" d="M347.9,315c-9.3,12.7-16.9,27-29.9,36l6.5,5.5l26.8-30.3l0.2-0.3C353.5,323.2,351.9,318.6,347.9,315L347.9,315z  "></path>
<path class="st2" d="M302.1,337.5c3.4-2.7,10.2-1.7,16.1,2.7c6.5,4.9,9.5,12,6.6,15.9l-0.3,0.4c-3.1,3.5-10.5,2.7-16.8-2  c-6.5-4.9-9.5-12-6.6-15.9C301.3,338.2,301.7,337.8,302.1,337.5L302.1,337.5z"></path>
<path class="st5" d="M366.6,304.4L337,321.6l3.2,20.2l27.8,13l0.6-0.7C365,338.5,362.8,320,366.6,304.4L366.6,304.4z"></path>
<path class="st6" d="M413.3,277.3l-46.7,27.1c-3.8,15.6-1.6,34,2,49.7l45.6-56.5L413.3,277.3z"></path>
<path d="M317.4,342.2c-4.4-3.3-9.5-4-12.1-2c-0.3,0.2-0.5,0.5-0.8,0.8c-1.5,2-0.9,5.2,1.2,8.2c5.1-0.3,9.9-1.9,14.2-4.7  C319.1,343.6,318.3,342.8,317.4,342.2z"></path>
<path class="st4" d="M319.9,344.4c-4.3,2.7-9.1,4.3-14.2,4.7c1,1.4,2.3,2.7,3.8,3.8c4.7,3.5,10.3,4.1,12.6,1.5l0.2-0.3  C324,351.7,322.9,347.8,319.9,344.4L319.9,344.4z"></path>
<path class="st7" d="M355.3,274.1c-1.5-0.5-3-1.1-4.4-1.6l-11.9,8.7l7.1,2.7C349,280.5,352.1,277.2,355.3,274.1z"></path>
<path class="st8" d="M384.8,298l8.5-9.3c-4.4-1.5-8.7-3.2-13-4.9c-3.5,3-7.1,5.9-10.6,8.9C374.7,294.4,379.7,296.2,384.8,298  L384.8,298z"></path>
<path class="st7" d="M346.1,283.9c7.8,3,15.7,5.9,23.6,8.8c3.5-3,7.1-5.9,10.6-8.9c-8.3-3.2-16.6-6.6-24.9-9.7  C352.1,277.2,349,280.5,346.1,283.9L346.1,283.9z M350.9,272.5c-2.6-0.9-5.2-1.8-7.9-2.6l-11.3,8.6l7.2,2.7L350.9,272.5z"></path>
<path class="st8" d="M375.8,253.8l-0.8-0.2l-8.2-1.8l-23.8,18c2.6,0.8,5.3,1.7,7.9,2.6C359.3,266.4,367.6,260.2,375.8,253.8  L375.8,253.8z"></path>
<path class="st7" d="M377.4,254.1l-1.6-0.4c-8.2,6.4-16.5,12.6-24.9,18.7c1.5,0.5,3,1.1,4.4,1.6  C362.4,267.1,369.9,260.6,377.4,254.1L377.4,254.1z"></path>
<path class="st9" d="M393.3,288.7l22.7-24.9c-1.6-0.6-4.7-1.4-8.5-2.4c-9.2,7.4-18.3,14.9-27.3,22.4  C384.6,285.5,388.9,287.1,393.3,288.7L393.3,288.7z"></path>
<path class="st8" d="M355.3,274.1c8.4,3.1,16.6,6.5,24.9,9.7c9-7.5,18.1-14.9,27.3-22.4c-9.9-2.6-24.4-6-30.1-7.3  C369.9,260.6,362.4,267.1,355.3,274.1L355.3,274.1z"></path>
<path class="st7" d="M377,306.5l7.8-8.5c-5.1-1.7-10.1-3.5-15.2-5.4l-8,6.7C366.8,301.6,371.9,304,377,306.5z M340,291.3  c7.4,2.2,14.6,4.8,21.6,8l8-6.7c-7.9-2.9-15.7-5.8-23.6-8.8C344,286.3,341.9,288.8,340,291.3z"></path>
<path class="st9" d="M368.3,316.1l8.8-9.6c-5.1-2.4-10.2-4.9-15.4-7.1l-10,8.4C357.2,310.6,362.7,313.4,368.3,316.1L368.3,316.1z"></path>
<path class="st7" d="M346.1,283.9l-7.1-2.7c-5.2,3.9-10.5,7.7-15.7,11.7c9.5,4.9,18.9,10,28.4,14.9l10-8.4c-7-3.2-14.2-5.8-21.6-8  C341.9,288.8,344,286.3,346.1,283.9L346.1,283.9z"></path>
<path class="st9" d="M331.7,278.4L317,289.6c2.1,1.1,4.2,2.2,6.3,3.2c5.2-4,10.4-7.8,15.7-11.7L331.7,278.4z"></path>
<path class="st7" d="M308.8,295.9c-0.9,0.5-3.2,2.4-3.2,2.4l7.4,2.6c3.4-2.7,6.8-5.4,10.3-8c-2.1-1.1-4.2-2.2-6.3-3.2L308.8,295.9z   M365.5,319.1l2.8-3c-5.6-2.7-11.1-5.5-16.6-8.3l-5.5,4.6L365.5,319.1z"></path>
<path class="st8" d="M313,300.8l33.2,11.5l5.5-4.6c-9.5-4.9-18.9-10-28.4-14.9C319.8,295.5,316.4,298.1,313,300.8L313,300.8z"></path>
<path class="st10" d="M305.6,298.2c0,2.7,0.6,13.7,0.9,16.8c6.6,2.8,53.9,19.5,60.8,22c-0.8-6-1.5-12-1.9-18L305.6,298.2z"></path>
<path class="st8" d="M416.5,281.6c0-5.6,0.3-11-0.5-17.8l-50.5,55.2h-0.1c0.4,6,1,12,1.9,18l0.2,0.1  C373,331.7,413.8,285.6,416.5,281.6z"></path>
<path class="st11" d="M370,294.6l-0.3-14.9l-30.6-0.3l-4.3,14.8c0,0.2-0.1,0.3-0.1,0.5c0,2.9,7.9,5.3,17.6,5.3S370,297.5,370,294.6  L370,294.6z"></path>
<path class="st12" d="M369.7,279.6c0,2.2-6.9,4-15.3,4s-15.3-1.8-15.3-4c0-0.1,0-0.2,0-0.3c0.6-2.1,7.2-3.7,15.3-3.7  C362.8,275.7,369.6,277.5,369.7,279.6L369.7,279.6z"></path>
<path class="st5" d="M377.5,270.3l0.1-6.7l12.1-0.1l1.7,6.6c0,0.1,0,0.1,0,0.2c0,1.3-3.1,2.4-7,2.4S377.5,271.6,377.5,270.3  L377.5,270.3z"></path>
<path class="st12" d="M377.6,263.6c0,1,2.7,1.8,6.1,1.8s6.1-0.8,6.1-1.8c0,0,0-0.1,0-0.1c-0.2-0.9-2.9-1.7-6.1-1.7  C380.4,261.8,377.7,262.6,377.6,263.6L377.6,263.6z"></path>
<path class="st13" d="M438.9,292l-28.5,11.4l0.4,8.2l35.5,44.2l0.8-0.4C448,334.3,445.9,313.1,438.9,292L438.9,292z"></path>
<path class="st14" d="M553,290.3l-40-28L438.9,292c7.1,21.1,9.1,42.3,8.2,63.4l102.2-53.4L553,290.3z"></path>
<path class="st15" d="M556.5,308.3l-11-6.2l-90.5,45l-2,4.8l8.5,14.8l61.8-34.1l-3.3-5.8l3.6-1.8l2.9,5.8l25.5-14.1L556.5,308.3z"></path>
<g>
	<path class="st16" d="M410.4,303.4c0.3,0.4,1.6,1.9,3.5,4.1c2.2-1.1,4.4-2.2,6.6-3.4c-1.4-1.3-2.8-2.7-4.2-4   C414,301.3,412,302.4,410.4,303.4L410.4,303.4z"></path>
	<path class="st16" d="M416.1,300.1c1.4,1.3,2.8,2.7,4.2,4c1.4-0.7,2.8-1.4,4.2-2.1c-1.4-1.4-2.9-2.8-4.3-4.1   C418.8,298.7,417.4,299.5,416.1,300.1z"></path>
	<path class="st16" d="M420.2,298c1.5,1.4,2.9,2.7,4.3,4.1c4.4-2.2,8.9-4.4,13.4-6.5c-1.7-1.3-3.4-2.5-5.1-3.7   C428.3,294,424,296.1,420.2,298z"></path>
	<path class="st16" d="M432.9,291.9c1.7,1.2,3.4,2.5,5.1,3.7c1.9-0.9,3.8-1.8,5.7-2.7l-4.4-4C437.1,290,435,291,432.9,291.9z"></path>
	<path class="st16" d="M439.3,289c1.5,1.3,2.9,2.7,4.4,4c5.7-2.7,11.5-5.3,17.3-7.8c-1.2-1.4-2.3-2.7-3.4-4.1   C451.3,283.7,445.2,286.4,439.3,289L439.3,289z M457.5,281.1c1.1,1.4,2.3,2.7,3.4,4.1c0.7-0.3,1.4-0.6,2.1-0.9   c-1.2-1.3-2.3-2.7-3.5-4L457.5,281.1z"></path>
	<path class="st16" d="M459.5,280.2c1.2,1.4,2.3,2.7,3.5,4c6-2.7,12.1-5.3,18.2-7.8c-1.1-1.3-2.2-2.6-3.2-3.9   C472.1,275,465.8,277.6,459.5,280.2L459.5,280.2z"></path>
	<path class="st16" d="M480.2,271.6l-2.2,0.9c1.1,1.3,2.1,2.6,3.2,3.9l2.6-1.1C482.7,274.1,481.5,272.9,480.2,271.6L480.2,271.6z"></path>
	<path class="st16" d="M480.2,271.6c1.2,1.2,2.4,2.5,3.6,3.7c5-2.1,10.1-4.2,15.1-6.3l-4.1-3.4C490.4,267.5,485.5,269.5,480.2,271.6   L480.2,271.6z"></path>
	<path class="st16" d="M494.9,265.7l4.1,3.4l2.9-1.1l-4.1-3.4L494.9,265.7z"></path>
	<path class="st16" d="M515.3,257.6c-0.8,0.4-7.6,3-17.5,7l4.1,3.4c5.7-2.4,11.5-4.7,17.2-7L515.3,257.6z M413.8,307.5l4.7,5.5   l7.1-3.7c-1.7-1.7-3.4-3.4-5.2-5.1C418.2,305.3,416,306.4,413.8,307.5z"></path>
	<path class="st16" d="M420.4,304.2c1.8,1.7,3.5,3.4,5.2,5.1l4.1-2.1c-1.6-1.7-3.3-3.4-5-5.1C423.2,302.8,421.8,303.5,420.4,304.2z"></path>
</g>
<path class="st17" d="M424.6,302.1c1.7,1.7,3.4,3.4,5,5.1c4.7-2.4,9.3-4.8,13.9-7.2c-1.8-1.5-3.7-2.9-5.6-4.3  C433.5,297.8,429,299.9,424.6,302.1L424.6,302.1z"></path>
<path class="st16" d="M438,295.6c1.9,1.4,3.7,2.9,5.6,4.3l4.9-2.5c-1.6-1.5-3.2-3-4.8-4.5C441.8,293.9,439.9,294.7,438,295.6z"></path>
<path class="st16" d="M443.7,293c1.6,1.5,3.2,3,4.8,4.5c5.3-2.7,10.7-5.4,16.1-8.1c-1.2-1.4-2.4-2.8-3.6-4.2  C455.2,287.7,449.4,290.3,443.7,293L443.7,293z M461,285.2c1.2,1.4,2.4,2.8,3.6,4.2l2.2-1c-1.2-1.4-2.5-2.7-3.7-4.1  C462.4,284.6,461.6,284.9,461,285.2z"></path>
<path class="st18" d="M463,284.3c1.2,1.4,2.5,2.7,3.7,4.1c5.8-2.8,11.7-5.6,17.5-8.2l-3-3.7C475.2,279,469.1,281.6,463,284.3z"></path>
<path class="st16" d="M483.9,275.4l3.3,3.4c5.1-2.3,10.3-4.5,15.5-6.7l-3.7-3C493.9,271.2,488.9,273.3,483.9,275.4L483.9,275.4z"></path>
<path class="st17" d="M519.1,260.9c-5.8,2.3-11.5,4.6-17.2,7l3.7,3c5.7-2.3,11.5-4.6,17.3-6.7L519.1,260.9z"></path>
<path class="st16" d="M499,269.1l3.7,3l2.8-1.1l-3.7-3L499,269.1z M483.9,275.4l-2.6,1.1l3,3.7l2.9-1.3L483.9,275.4z M418.5,313  c2,2.4,4.3,5,6.7,7.8l8-3.7c-2.5-2.7-5-5.3-7.6-7.9L418.5,313z"></path>
<path class="st16" d="M425.5,309.3c2.6,2.6,5.1,5.2,7.6,7.9l4-1.8c-2.5-2.8-5-5.5-7.6-8.1L425.5,309.3z M443.6,300  c3.3,2.6,6.5,5.3,9.6,8.1l4.1-1.9c-2.9-2.9-5.9-5.8-8.8-8.7L443.6,300z"></path>
<path class="st17" d="M448.5,297.5c3,2.9,5.9,5.8,8.8,8.7l15.5-7.1c-2.7-3.2-5.5-6.4-8.2-9.6C459.2,292.1,453.8,294.7,448.5,297.5z"></path>
<path class="st5" d="M464.6,289.4c2.7,3.2,5.5,6.4,8.2,9.6l2.8-1.3c-3-3.1-5.9-6.2-8.8-9.4L464.6,289.4z"></path>
<path class="st16" d="M466.8,288.4c2.9,3.2,5.9,6.3,8.8,9.4l16.9-7.8c-2.7-3.3-5.5-6.6-8.3-9.9C478.4,282.8,472.5,285.5,466.8,288.4  z"></path>
<path class="st19" d="M484.3,280.1c2.8,3.3,5.5,6.6,8.3,9.9l3.6-1.6c-2.9-3.2-5.9-6.4-9-9.6L484.3,280.1z"></path>
<path class="st17" d="M487.2,278.8c3,3.2,6,6.4,9,9.6l17-7.8c-3.5-2.9-6.9-5.7-10.4-8.5C497.5,274.3,492.3,276.5,487.2,278.8  L487.2,278.8z"></path>
<path class="st16" d="M502.7,272.1c3.5,2.8,7,5.7,10.4,8.5l2.6-1.2c-3.4-2.9-6.8-5.7-10.2-8.5L502.7,272.1z"></path>
<path class="st18" d="M522.8,264.2c-5.8,2.1-11.6,4.4-17.3,6.7c3.4,2.8,6.8,5.6,10.2,8.5l16-7.3L522.8,264.2z"></path>
<path class="st16" d="M429.6,307.2c2.6,2.7,5.1,5.4,7.6,8.1l16-7.3c-3.2-2.7-6.4-5.4-9.6-8.1C438.9,302.4,434.3,304.8,429.6,307.2z"></path>
<path class="st17" d="M425.1,320.8c2.9,3.4,5.9,6.9,8.7,10.2l8-4.6c-2.9-3.1-5.8-6.2-8.7-9.3L425.1,320.8z"></path>
<path class="st16" d="M433.2,317.2c2.9,3.1,5.8,6.2,8.7,9.3l3.4-1.9c-2.6-3.1-5.3-6.2-8-9.2L433.2,317.2z"></path>
<path class="st18" d="M437.2,315.3c2.7,3,5.4,6.1,8,9.2c5.4-3.1,10.8-6.2,16.1-9.3c-2.7-2.4-5.4-4.8-8.1-7.2L437.2,315.3z"></path>
<path class="st16" d="M453.2,308c2.7,2.4,5.4,4.8,8.1,7.2l3.1-1.8c-2.4-2.4-4.8-4.9-7.2-7.3L453.2,308z"></path>
<path class="st5" d="M472.8,299.1c1.8,2.2,3.6,4.3,5.5,6.5l3.2-1.8c-2-2-4-4-5.9-6L472.8,299.1z"></path>
<path class="st18" d="M475.6,297.8c2,2,3.9,4,5.9,6c5.1-2.9,10.2-5.7,15.4-8.5c-1.4-1.8-2.9-3.5-4.4-5.3L475.6,297.8z"></path>
<path class="st20" d="M492.5,290c1.5,1.8,2.9,3.5,4.4,5.3c1.2-0.7,2.5-1.3,3.8-2c-1.5-1.6-3-3.3-4.5-4.9L492.5,290z"></path>
<path class="st18" d="M496.1,288.4c1.5,1.6,3,3.3,4.5,4.9c5.7-3,11.4-5.9,17.1-8.8c-1.5-1.3-3.1-2.6-4.6-3.9L496.1,288.4z"></path>
<path class="st16" d="M513.1,280.6c1.6,1.3,3.1,2.6,4.6,3.9c0.8-0.4,1.7-0.8,2.5-1.2c-1.5-1.3-3-2.6-4.5-3.9L513.1,280.6z"></path>
<path class="st16" d="M531.8,272.1l-16,7.3c1.5,1.3,3,2.6,4.5,3.9c5.2-2.5,10.5-5,15.8-7.4L531.8,272.1z"></path>
<path class="st19" d="M457.3,306.2c2.4,2.4,4.8,4.8,7.2,7.3c4.6-2.7,9.2-5.3,13.8-7.9c-1.8-2.2-3.6-4.4-5.5-6.5L457.3,306.2z"></path>
<path class="st5" d="M441.9,326.5l3.5,3.8l3.3-1.6c-1.2-1.4-2.3-2.8-3.5-4.1L441.9,326.5z"></path>
<path class="st16" d="M445.2,324.5c1.2,1.4,2.3,2.7,3.5,4.1c6-2.9,12-5.8,18.1-8.5c-1.8-1.7-3.6-3.3-5.4-4.9  C456,318.3,450.6,321.4,445.2,324.5L445.2,324.5z M464.5,313.4l5.3,5.4c4.7-2.1,9.4-4.2,14.1-6.2c-1.8-2.4-3.7-4.7-5.6-7  C473.7,308.2,469.1,310.8,464.5,313.4z"></path>
<path class="st5" d="M478.3,305.6c1.9,2.3,3.8,4.7,5.6,7l4.6-2c-2.3-2.3-4.6-4.6-6.9-6.9L478.3,305.6z"></path>
<path class="st16" d="M481.5,303.8c2.3,2.3,4.6,4.6,6.9,6.9c5.1-2.2,10.3-4.4,15.4-6.6c-2.3-3-4.6-5.9-6.9-8.8  C491.7,298.1,486.6,300.9,481.5,303.8z"></path>
<path class="st19" d="M496.9,295.3c2.3,2.9,4.7,5.8,6.9,8.8l4.7-2c-2.6-2.9-5.2-5.8-7.9-8.7C499.4,294,498.1,294.7,496.9,295.3  L496.9,295.3z"></path>
<path class="st16" d="M500.6,293.3c2.6,2.9,5.3,5.8,7.9,8.7c6.5-2.8,13-5.6,19.5-8.4c-3.3-3.1-6.8-6.1-10.3-9.1  C512,287.4,506.3,290.3,500.6,293.3z"></path>
<path class="st16" d="M517.8,284.5c3.5,3,6.9,6,10.3,9.1l2.5-1.1c-3.4-3.2-6.8-6.2-10.3-9.2C519.5,283.7,518.6,284.1,517.8,284.5  L517.8,284.5z"></path>
<path class="st5" d="M540.9,280.1l-4.8-4.2c-5.3,2.4-10.6,4.8-15.8,7.4c3.5,3,6.9,6.1,10.3,9.2c5.5-2.4,10.9-4.8,16.3-7.3  L540.9,280.1z"></path>
<path class="st16" d="M461.3,315.2c1.8,1.6,3.6,3.3,5.4,4.9l3-1.3l-5.3-5.4L461.3,315.2z M433.9,331l3,3.5c2.8-1.5,5.6-2.9,8.5-4.3  l-3.5-3.8L433.9,331z"></path>
<path class="st17" d="M436.9,334.6c5,5.8,9.1,10.5,10.8,12.4l8.6-4.6c-3.6-4-7.3-8-11-12.1C442.5,331.7,439.7,333.1,436.9,334.6z"></path>
<path class="st19" d="M445.4,330.3c3.7,4,7.3,8,11,12.1l2.5-1.4c-3.4-4.1-6.8-8.2-10.2-12.3L445.4,330.3z"></path>
<path class="st18" d="M448.7,328.7c3.4,4.1,6.8,8.2,10.2,12.3l19.5-10.4c-3.9-3.4-7.7-6.9-11.5-10.4  C460.7,322.9,454.7,325.7,448.7,328.7L448.7,328.7z"></path>
<path class="st16" d="M469.8,318.8l-3,1.3c3.8,3.5,7.7,7,11.5,10.4l2.1-1.1C476.9,325.9,473.3,322.4,469.8,318.8z"></path>
<path class="st17" d="M469.8,318.8c3.5,3.6,7.1,7.1,10.6,10.6l11.2-6c-2.5-3.7-5.1-7.3-7.8-10.8  C479.2,314.7,474.5,316.7,469.8,318.8L469.8,318.8z"></path>
<path class="st16" d="M483.9,312.6c2.7,3.5,5.3,7.1,7.8,10.8l6.4-3.5c-3.2-3.1-6.5-6.2-9.7-9.3L483.9,312.6z"></path>
<path class="st16" d="M488.4,310.7c3.2,3.1,6.4,6.2,9.7,9.3l12.5-6.7c-2.2-3.1-4.5-6.1-6.8-9.1C498.7,306.3,493.6,308.5,488.4,310.7  L488.4,310.7z M530.6,292.5l-2.5,1.1c2.3,2.1,4.6,4.3,6.8,6.5l2.3-1.3C535,296.8,532.8,294.6,530.6,292.5z"></path>
<path class="st16" d="M546.9,285.2c-5.4,2.5-10.9,4.9-16.3,7.3c2.2,2.1,4.4,4.2,6.6,6.4l15.8-8.6L546.9,285.2z"></path>
<path class="st17" d="M508.5,302.1c2.5,2.8,4.9,5.5,7.4,8.3l12.7-6.8l6.2-3.4c-2.2-2.2-4.4-4.4-6.8-6.5  C521.6,296.5,515.1,299.3,508.5,302.1L508.5,302.1z"></path>
<path class="st16" d="M503.8,304.1c2.3,3,4.6,6,6.8,9.1l5.3-2.9c-2.5-2.8-5-5.6-7.4-8.3L503.8,304.1z"></path>
<path class="st10" d="M455,347.1l7.8,11.8l5.4-2.8c-2.7-3.8-5.3-7.7-7.8-11.8L455,347.1z M466.4,341.1c2.2,4.1,4.3,8.3,6.7,12.5  l11.3-5.7c-2.5-4.1-4.7-8.3-7.1-12.4L466.4,341.1z"></path>
<path class="st6" d="M509.6,318.5l-1.9,1c2.4,4.3,4.6,8.7,6.8,13l2.1-1.1C514.1,327.2,511.6,322.9,509.6,318.5z"></path>
<path class="st10" d="M523.9,311l-14.3,7.5c2,4.4,4.5,8.6,7,13l4.7-2.4l-3.8-3.5l5.2-3.5l4,4l5.8-3.5  C529.7,318.8,526.8,314.9,523.9,311L523.9,311z"></path>
<path class="st6" d="M525.4,310.2l-1.5,0.8c2.8,3.9,5.7,7.8,8.7,11.6l2.1-1.2C531.9,317.4,528.8,313.7,525.4,310.2L525.4,310.2z"></path>
<path class="st10" d="M537,304.2l-11.6,6.1c3.4,3.4,6.6,7.1,9.3,11.1l11.2-6.7C543.1,311.1,540.1,307.5,537,304.2L537,304.2z"></path>
<path class="st6" d="M538.5,303.4l-1.5,0.8c3.2,3.4,6.1,6.9,9,10.5l3-1.8C545.6,309.6,542.1,306.4,538.5,303.4L538.5,303.4z"></path>
<path class="st10" d="M545.8,299.6l-7.3,3.8c3.6,3,7.1,6.2,10.5,9.4l7.5-4.5L545.8,299.6z"></path>
<path class="st6" d="M494.8,326.3l-2.8,1.5c2.9,3.9,5.8,7.9,8.7,11.8l2.3-1.2C500.1,334.5,497.3,330.5,494.8,326.3z"></path>
<path class="st10" d="M507.7,319.5l-13,6.8c2.5,4.2,5.3,8.2,8.2,12.1l11.5-5.9C512.3,328.2,510.1,323.8,507.7,319.5z M492,327.7  l-12.8,6.7c2.2,4.2,4.5,8.4,7,12.5l14.5-7.4C497.7,335.6,494.8,331.6,492,327.7z"></path>
<path class="st6" d="M477.3,335.4c2.4,4.1,4.6,8.3,7.1,12.4l1.9-1c-2.5-4.1-4.9-8.3-7-12.5L477.3,335.4z M463.9,342.4  c2.4,4,4.9,8.1,7.3,12.1l1.8-0.9c-2.4-4.1-4.5-8.4-6.7-12.5L463.9,342.4z"></path>
<path class="st6" d="M463.9,342.4l-3.6,1.9c2.5,4,5.1,8,7.8,11.8l3-1.5C468.8,350.5,466.3,346.5,463.9,342.4L463.9,342.4z"></path>
<path class="st21" d="M404.8,343.3l24.2-12.8"></path>
<path class="st22" d="M427.1,335.4l-0.8,0.5c-1.4,0.8-1.9,2.6-1.1,4.1c0.5,0.9,1.5,1.5,2.6,1.5c0.5,0,1-0.1,1.5-0.4l1.6-0.9  C430.5,337.9,429.6,335.9,427.1,335.4z"></path>
<path class="st17" d="M435.1,334.4c-0.8-1.4-2.7-1.9-4.1-1.1l-2,1.2c3.3,0.4,3.5,2.7,3.3,5l1.7-1  C435.4,337.6,435.9,335.8,435.1,334.4z"></path>
<path class="st10" d="M429,334.4l-1.9,1c2.5,0.5,3.4,2.5,3.7,4.8l1.4-0.8C432.5,337.1,432.3,334.8,429,334.4L429,334.4z"></path>
<path class="st23" d="M448.8,351.8l14.8,23"></path>
<path class="st24" d="M471.6,358.3l9.9,11.6"></path>
<path class="st2" d="M325.6,179.8c-0.1-1.5-0.6-5-0.6-6c9.6-2.7,13.6,1.4,15.3,3.5c4-1.2,20.4-5.5,24-7c2.1-10.1,13.4-8.5,15.6-4.9  c2.5-0.7,5.4-1.6,6.9-1.9c0.7,2.3,1.3,4.6,1.6,7c-1.8,0.5-4.8,1.2-5.9,1.5c-0.2,5.8-9.3,11.4-16.6,5c-2.5,0.8-20.2,5.5-23,6.3  c0.8,5.6-5.2,12.1-9.4,13.7c-1-1.2-2.8-3.9-3.9-5.1C336.9,188.7,339.9,178,325.6,179.8L325.6,179.8z M373.9,167.2  c-2,0-3.7,1.6-3.7,3.6c0,2,1.6,3.7,3.6,3.7c2,0,3.7-1.6,3.7-3.6c0,0,0,0,0,0C377.5,168.8,375.9,167.2,373.9,167.2  C373.9,167.2,373.9,167.2,373.9,167.2z"></path>
<path class="st0" d="M325.3,177.5c-0.1-1.5-0.6-5-0.6-6c9.6-2.7,13.6,1.4,15.3,3.5c4-1.2,20.4-5.5,24-7c2.1-10.1,13.4-8.5,15.6-4.9  c2.5-0.6,5.4-1.6,6.9-1.9c0.8,2.3,1.3,4.7,1.6,7.1c-1.8,0.5-4.8,1.2-5.9,1.5c-0.2,5.8-9.3,11.4-16.6,5c-2.5,0.8-20.2,5.5-23,6.3  c0.8,5.6-5.2,12.1-9.4,13.7c-1-1.2-2.8-3.9-3.9-5.1C336.6,186.4,339.5,175.7,325.3,177.5L325.3,177.5z M373.5,164.8  c-2,0-3.7,1.6-3.7,3.6s1.6,3.7,3.6,3.7s3.7-1.6,3.7-3.6c0,0,0,0,0,0C377.1,166.5,375.5,164.8,373.5,164.8z"></path>
<path class="st25" d="M873.7,116.3l-41.9,47"></path>
<path class="st26" d="M854.7,124.3l-23.2,26.5"></path>
<path class="st27" d="M644.8,52.7c0,0,7.7-1,10,5.1s2,10.2-4.3,13.7l-2.5-0.6c0,0,6.7-3.6,4.8-9.5S648.1,54,644.8,52.7z   M717.1,264.2c1.1,2.3,3.2,4,6.2,5.2c8.5,3.4,24.1,2.2,68.9-14.3l-24.5-39.5C722.1,241.1,713.2,255.8,717.1,264.2z"></path>
<path class="st28" d="M734.5,262.9c-2.8,0.1-5.6-0.5-8.3-1.6c-2-0.9-3.2-2-3.6-3.3c-0.8-2.4-1.5-15.1,50.4-42.5l18.6,33  C764.4,258.4,745.8,263.1,734.5,262.9L734.5,262.9z M757.6,287.1l36.1,62.5c5.1,8.8,30.6,3.5,57.1-11.8c1.8-1.1,3.6-2.1,5.3-3.2  c-12.9-26.4-24.7-53.4-37.6-79.9L757.6,287.1z M889.6,294.3l-34.1-59.1l-23.1,12.2c13.4,24.9,27.2,49.7,42.3,73.5  C886.7,310.3,892.9,300,889.6,294.3L889.6,294.3z"></path>
<path class="st27" d="M832.4,247.5l-13.8,7.3c12.9,26.5,24.7,53.5,37.6,79.9c6.5-4.1,12.7-8.7,18.5-13.7  C859.6,297.1,845.8,272.4,832.4,247.5L832.4,247.5z"></path>
<path class="st27" d="M863.4,217.7l12.3,23.4c0,0-9.7,23.1-62.3,42.6c-49.1,18.2-73.7,20-73.7,20l4.7-20L863.4,217.7z"></path>
<path class="st0" d="M830.3,130.3l-56.2,27.3c11.9,9.6,23.4,19.4,35.9,29.7c12,10,26,16,39,26c9,6.7,16.8,14.7,24.6,22.5  c2.3-2.8,4.3-5.7,6.1-8.8L830.3,130.3z"></path>
<path class="st28" d="M849,213.3c-13-10-27-16-39-26c-12.5-10.3-23.9-20.1-35.9-29.7l-27.6,13.4c2.5,3.1,5.3,5.9,8.5,8.2  c11,8,25,13,31,25c13.4,25.5,35.3,42.9,60.3,54.4c10.6-6.8,20.3-14.4,27.3-22.9C865.8,228,858,220.1,849,213.3L849,213.3z"></path>
<path class="st0" d="M716.6,262l-0.3-1C716.4,261.3,716.5,261.7,716.6,262z"></path>
<path class="st27" d="M705.4,191.1c3.3,7.1,6.8,14,9.6,21.3c2.5,6.8,4.8,13.7,7.1,20.6c3.8-0.8,7.8-1.9,12.1-3.2  c-6.7-14.3-12.9-28.8-18.7-43.5L705.4,191.1z"></path>
<path class="st29" d="M753.6,208.3l-17.2,9.2l15.8,34.4H773L753.6,208.3z"></path>
<path class="st30" d="M748.5,229.2l0.5,3.4c0,0,3.2,1.9,4.9,1.2s-1.6-4.4-1.6-4.4C750.8,228.2,749.8,228.1,748.5,229.2z"></path>
<path class="st2" d="M765.9,201.6l-12.3,6.6l19.4,43.7l15.3-15.3L765.9,201.6z M757.9,234.1l-1.4-2.8h-2.4c0-0.1-0.1-0.2-0.1-0.3  c-1.2-2.6-3.4-4.1-4.8-3.5c-1,0.5-1.4,2-1.1,3.7h-3l1.4,2.8h2.7c1.3,2.2,3.2,3.4,4.5,2.8c0.8-0.4,1.2-1.5,1.2-2.8H757.9z M752.5,235  c-0.8,0.4-2.1-0.6-2.9-2.1s-0.8-3.2,0.1-3.6s2.1,0.6,2.9,2.1S753.3,234.6,752.5,235L752.5,235z"></path>
<path class="st27" d="M734.6,268.5c3.6,9.3,7.9,18.3,12.8,27c6.9-0.4,13.7-1.4,20.4-3c-5.3-8.7-10.3-17.5-15.2-26.4  C746.7,267.4,740.7,268.2,734.6,268.5z"></path>
<path class="st0" d="M846.3,258.8c-25-11.6-46.9-28.9-60.3-54.4c-6-12-20-17-31-25c-3.2-2.3-6.1-5.1-8.5-8.2l-31,15.1  c5.8,14.7,12,29.2,18.7,43.5c11.6-3.7,22.8-8.4,33.5-14l24.5,39.5c-12.9,4.5-26.2,8.2-39.6,11.1c4.8,8.9,9.9,17.7,15.2,26.4  c2.7-0.6,5.6-1.4,8.6-2.2C776.3,290.3,815.2,278.6,846.3,258.8L846.3,258.8z M725,292.3c2.1,1,4.3,1.8,6.6,2.2  c-4-10.2-8.7-20.2-14.2-29.7L725,292.3z"></path>
<path class="st31" d="M716.6,262l0.8,2.8c5.5,9.5,10.2,19.5,14.2,29.7c1.7,0.4,3.4,0.6,5.2,0.8c-3.8-9.2-7.6-18.4-11.9-27.4  C720.7,267,717.7,265.1,716.6,262L716.6,262z"></path>
<path class="st0" d="M747.4,295.6c-4.9-8.7-9.2-17.7-12.8-27c-3.3,0.2-6.5-0.1-9.8-0.7c4.3,9,8.1,18.2,11.9,27.4  C740.3,295.7,743.8,295.7,747.4,295.6L747.4,295.6z M690.2,198.5l-3.9,1.9V235c3.4,0.7,6.8,1,10.2,0.9c-1.5-2.7-2.7-5.6-3.5-8.6  C692.5,217.2,691.9,207.7,690.2,198.5z M704.8,235.6c5.8-0.5,11.6-1.4,17.3-2.7c-2.3-6.9-4.6-13.8-7.1-20.6  c-2.8-7.3-6.3-14.2-9.6-21.3l-10.6,5.2c0.5,13.7,0.2,27.6,7.2,36.1C703,233.4,703.9,234.5,704.8,235.6z"></path>
<path class="st31" d="M702,232.3c-7-8.5-6.8-22.4-7.2-36.1l-4.6,2.2c1.7,9.3,2.3,18.8,2.8,28.9c0.8,3,2,5.9,3.5,8.6  c2.4,0,5.1,0,8.2-0.3C703.9,234.5,703,233.4,702,232.3z"></path>
<path class="st28" d="M819,68.3c-2.1-6.7-4.8-13.3-7.9-19.7c-9.8,1.6-19.5,4-29,7.1c1.8,5.8,2.3,11.9-0.1,18.5c-2,6-9,9-11,14  c-13.8,36.9-35.9,70.1-64.4,97.3c19.6-7,38.5-15.9,56.5-26.3c16.1-9.3,31.5-19.8,46-31.5C819.5,109.6,825.3,89.8,819,68.3z"></path>
<path class="st32" d="M852.6,57.6c-5.4-9.4-20.7-12.1-41.5-8.9c3.1,6.4,5.7,12.9,7.9,19.7c6.3,21.5,0.5,41.3-9.9,59.4  c24.2-19.7,40.4-39.5,44.5-54.6C855.3,67.1,855.1,61.8,852.6,57.6z"></path>
<path class="st31" d="M782,74.3c2.5-6.7,2-12.7,0.1-18.5C763,62,741.5,71.6,719.8,84.1c-30.2,17.4-55.2,37.2-71.4,55.4  c1.7,2.7,3.9,5.1,6.6,6.9c23.5,14.8,50.9,12.9,77.4,10.9c16.3-20.9,29.3-44.1,38.6-68.9C773,83.3,780,80.3,782,74.3z"></path>
<path class="st32" d="M655,146.3c-2.7-1.8-4.9-4.1-6.6-6.9c-16.8,18.8-24.2,35.8-18.1,46.3c2.1,3.7,5.8,6.4,10.7,8  c13.8,4.8,37.7,1.6,65.7-8.2c9.3-8.8,17.9-18.3,25.7-28.4C705.9,159.2,678.6,161.1,655,146.3z"></path>
<path class="st27" d="M828,131.7l-24.7-36.3l-130.5,50.9l9.5,54.4C749.7,188.6,786.5,173.1,828,131.7z"></path>
<path class="st0" d="M701,135.3c16.4-14.3,32.5-28.2,49.4-41.2c-6.8,1.9-13.5,4.1-20.1,6.7c-34.7,13.5-59.6,33.4-57.5,45.5  c0.1,0.5,0.2,1,0.4,1.5c1.5,3.9,6.2,6.4,13,7.4c6-4.2,11.9-8.8,16.8-14.9C705,138.3,700,137.3,701,135.3L701,135.3z"></path>
<path class="st32" d="M787.2,89.2c-9.7-0.6-22.5,1-36.8,4.9c-16.9,13-33,27-49.4,41.2c-1,2,4,3,2,5c-4.9,6.1-10.7,10.7-16.8,14.9  c13.8,2.1,36.7-1.8,60.9-11.2c2.7-1,5.3-2.1,7.8-3.2c0.1-0.5,0.1-1,0.1-1.5C754.2,118,771.5,102.9,787.2,89.2z"></path>
<path class="st0" d="M804.2,97c-0.2-0.6-0.5-1.1-0.8-1.6c-2.5-3.7-8.2-5.7-16.1-6.2c-15.7,13.8-33,28.9-32.2,50.2c0,0.5,0,1-0.1,1.5  C786.9,127,808.5,108.1,804.2,97L804.2,97z"></path>
<path class="st28" d="M728,129.3L679.3,28.8l3-1.5l60.8,96C744.4,125.9,729.1,131.5,728,129.3z M787,181.3  c-3.3-12.7-2.7-24.9-0.4-36.8c-7.4,5-15.2,10-23.5,14.7c-50.5,29.1-99.6,42.3-122.2,34.6l48.1,16.5c41.9-1.6,72.6-7.5,97.3-21.9  C787.3,186.2,787.6,183.7,787,181.3L787,181.3z"></path>
<path class="st0" d="M825.6,113.2c-12.1,11.5-25.1,22-39,31.3c-2.3,11.9-2.9,24.1,0.4,36.8c0.6,2.4,0.3,4.9-0.7,7.1  c5.6-3.3,10.9-7,15.9-11.1c2.8-9.4,4.8-18.9,8.8-26.9C816.8,138.4,821.7,125.9,825.6,113.2L825.6,113.2z"></path>
<path class="st28" d="M825.6,113.2c-3.9,12.7-8.7,25.2-14.6,37.1c-4,8-6,17.6-8.8,26.9c12.6-10.4,23.6-23.8,34.1-40.9l17.3-63.2  C850.6,84.5,840.6,98.6,825.6,113.2L825.6,113.2z M727,111.3l-51,13c0,0-4.5,2.5-7.5-5s-20.5-47-20.5-47l3.4-2.1l23.1,47.1l48-13.5  L727,111.3z"></path>
<path class="st27" d="M731,129.3L681,28.1l3-1.5l62,96.8C747.4,125.9,732.1,131.5,731,129.3z"></path>
<path class="st27" d="M728.5,108.8l-51,13c0,0-4.5,2.5-7.5-5s-20.5-47-20.5-47l3.2-2.5l23.2,47.5l48-13.5L728.5,108.8z"></path>
<path class="st32" d="M655.5,57.3c-2.7-5.1-9-7-14.1-4.3c-5.1,2.7-7,9-4.3,14.1c2.7,5,8.9,7,13.9,4.4  C656.2,68.8,658.2,62.5,655.5,57.3z M652.8,69.2c-3,1.5-7.2-0.7-9.4-5s-1.5-9,1.5-10.5s7.2,0.7,9.4,5S655.8,67.7,652.8,69.2  L652.8,69.2z"></path>
<path class="st5" d="M848,208.3c8,0.5,16,0.8,24.1,0.5l-2.8-46.5l-26.3,2.2c-0.3,0-0.5,0.1-0.8,0.1c-9.2,1.7-13.6,19.7-9.8,40.2  c0.2,1.2,0.5,2.4,0.8,3.5C838.5,208.7,844.1,207.7,848,208.3z M844,225.3c-1.6,0-3.6-0.9-5.6-1.7c4.9,10.1,11.6,16.4,17.6,15.2  c0.6-0.1,1.1-0.3,1.6-0.5l15.8-6.7l-0.2-4.1C863.6,225.4,853.8,224.6,844,225.3z"></path>
<path class="st6" d="M873.2,227.6l-1.1-18.7c-8,0.2-16,0-24.1-0.5c-3.9-0.6-9.5,0.4-14.9,0.1c1.2,5.3,2.9,10.4,5.3,15.2  c2.1,0.8,4,1.7,5.6,1.7C853.8,224.6,863.7,225.4,873.2,227.6z"></path>
<path class="st28" d="M887,197.3c0,16.9-5.8,31-13.5,34.3c-1.1,0.5-2.3,0.7-3.5,0.7c-9.4,0-17-15.7-17-35c0-18.8,7.2-34.2,16.3-35  h0.7C879.4,162.3,887,178,887,197.3L887,197.3z"></path>
<path class="st6" d="M832.3,202.3c0,0-34.4,25.9-36.2,28.2s-5.2,5.8,0.2,7.8c5.8,2.3,15.2-2.5,21-8.5s23.7-27.2,23.7-27.2  L832.3,202.3z"></path>
<path class="st5" d="M803,226.8c16.5-3.5,38-24.2,38-24.2l7,21.5c0,0-17.2,18-37.5,25C790.2,256.1,786.5,230.3,803,226.8z"></path>
<path class="st6" d="M870,171.6c-0.2,0-0.3,0-0.5,0c-2.2,0.3-4.1,1.4-5.5,3.1c0.7,0.8,1.4,1.7,2,2.6c5,9,7,18,4,28  c-1.1,4-2.9,10.2-6.1,14.5c1.8,2.1,3.9,3.3,6.1,3.3c0.9,0,1.7-0.2,2.5-0.5c5.7-2.4,10-12.8,10-25.2  C882.5,183.1,876.9,171.6,870,171.6L870,171.6z"></path>
<path class="st27" d="M866,177.3c-0.6-0.9-1.3-1.8-2-2.6c-3.9,4.4-6.5,12.9-6.5,22.6s2.6,18.1,6.4,22.5c3.2-4.3,5-10.5,6.1-14.5  C873,195.3,871,186.3,866,177.3z M676.8,2.8c9.2,3.5,14,20.5-2,26.2c0,0.7,12.8,4,16.3-10C694.3,6.3,677.7-1.9,676.8,2.8z"></path>
<path class="st32" d="M676.9,0c-8.5,0.1-15.4,7-15.4,15.6c0,0,0,0,0,0c0,1.3,0.2,2.6,0.5,3.9c3.7,0.5,7.2,1.5,10.6,3  c-0.7-1.9-1-3.9-1-5.9c0-7.1,4-12.8,9-12.8s9,5.7,9,12.8s-4,12.8-9,12.8c-2.3-0.1-4.4-1.2-5.8-3c-2.4,1.4-5.5,1.1-8.5,0.6  c2.8,2.7,6.6,4.3,10.5,4.2c8.5-0.1,15.4-7,15.4-15.6c0,0,0,0,0,0C692.4,7.1,685.5,0.1,676.9,0C677,0,677,0,676.9,0z"></path>
<path class="st0" d="M674.9,26.3c-1-1.2-1.7-2.5-2.2-3.9c-3.4-1.5-7-2.5-10.6-3c0.7,2.9,2.2,5.4,4.3,7.5  C669.4,27.4,672.5,27.7,674.9,26.3z"></path>
<path class="st33" d="M528.8,185.1c-0.1-0.6-0.1-1.1-0.1-1.7c0-12.8,16.7-7.8,22.3-23.7"></path>
<path class="st34" d="M508,151.3c7.4-3.3,14.4-3.4,20.9-8.5"></path>
<path class="st35" d="M524,173.1c2.9-1.8,5.6-3,8.7-3c5.8,0,8.3,4,12.2,4c4.8,0,4.5-11.2,8.4-15.2"></path>
<path class="st36" d="M545,142.5c-3.8-3-8.1-4-9.9-2.5l-15,13.3l14.1,12.1l15-13.3c0.1-0.1,0.2-0.2,0.3-0.3  C551,149.9,549,145.7,545,142.5L545,142.5z"></path>
<path class="st6" d="M524.7,141.7l30.4,25.3l36.7-36.2l1.1-7.9L561.1,112l-38,23.7L524.7,141.7z"></path>
<path class="st7" d="M543.2,144.8c-2.9-2.6-5.7-5.3-8.6-7.9l-4.9,3.9l9.8,7.7L543.2,144.8z"></path>
<path class="st7" d="M543.2,144.8l-3.6,3.7l7.9,6.2c1.1-1,2.2-2,3.3-3C548.2,149.4,545.7,147.1,543.2,144.8z"></path>
<path class="st7" d="M547.5,154.7l7.2,5.6l3-2.9c-2.3-1.9-4.6-3.8-6.9-5.8C549.7,152.6,548.6,153.6,547.5,154.7L547.5,154.7z"></path>
<path class="st12" d="M534.6,136.9c-2.1-1.9-4.2-3.8-6.3-5.7l-5.1,4.4l6.5,5.1L534.6,136.9z"></path>
<path class="st12" d="M544.6,128.9c-2.6-1.7-5.2-3.3-7.9-4.8l-8.3,7.2c2.1,1.9,4.2,3.8,6.3,5.7C537.9,134.3,541.3,131.6,544.6,128.9  L544.6,128.9z"></path>
<path class="st7" d="M550.8,151.6c2.2,2,4.5,3.9,6.9,5.8l10.5-10.3c-2-1.8-4.1-3.5-6.2-5.3C558.2,145.1,554.5,148.3,550.8,151.6  L550.8,151.6z"></path>
<path class="st12" d="M553.2,134.9c-3.3,3.3-6.7,6.6-10,9.9c2.5,2.3,5,4.6,7.6,6.8c3.7-3.3,7.4-6.6,11.1-9.8  C559.1,139.5,556.1,137.1,553.2,134.9L553.2,134.9z"></path>
<path class="st7" d="M553.2,134.9c-2.8-2.1-5.6-4.1-8.6-6c-3.3,2.7-6.7,5.4-10,8.1c2.9,2.6,5.7,5.3,8.6,7.9  C546.5,141.5,549.8,138.2,553.2,134.9z"></path>
<path class="st12" d="M555.5,120c-2.3-2.1-4.5-4.2-6.9-6.3L536.7,124c2.7,1.5,5.3,3.2,7.9,4.8L555.5,120z"></path>
<path class="st5" d="M562,126.3c-2.2-2.1-4.3-4.3-6.5-6.3l-10.9,8.9c2.9,1.9,5.8,3.9,8.6,6C556.1,132,559,129.2,562,126.3z"></path>
<path class="st7" d="M562,126.3c-3,2.8-5.9,5.7-8.9,8.6c3,2.2,5.9,4.6,8.8,6.9c2.8-2.4,5.5-4.7,8.3-7  C567.6,131.9,564.8,129.1,562,126.3L562,126.3z"></path>
<path class="st7" d="M561.9,141.8c2.1,1.7,4.2,3.5,6.2,5.3l7-6.9c-1.6-1.8-3.2-3.6-4.9-5.4C567.5,137.1,564.7,139.5,561.9,141.8z   M572.3,106.3l-7.8-6.3l-4.8,4.2c2.8,1.8,5.6,3.7,8.4,5.6C569.5,108.6,570.9,107.4,572.3,106.3z"></path>
<path class="st7" d="M578.3,111.1l-6-4.8c-1.4,1.1-2.8,2.3-4.2,3.4c2.2,1.5,4.5,3.1,6.7,4.7C575.9,113.3,577.1,112.2,578.3,111.1z"></path>
<path class="st7" d="M578.3,111.1c-1.2,1.1-2.4,2.2-3.5,3.3c3.6,2.6,7.2,5.1,10.8,7.7l3.2-2.6L578.3,111.1z M585.6,122.1l4.6,3.3  l2.7-2.6l-4.1-3.3L585.6,122.1z M568.1,109.7c-2.8-1.9-5.5-3.7-8.4-5.6l-5.2,4.5c2.6,2,5.2,3.9,7.8,5.8  C564.2,112.9,566.1,111.3,568.1,109.7L568.1,109.7z"></path>
<path class="st7" d="M574.8,114.4c-2.2-1.6-4.5-3.1-6.7-4.7c-1.9,1.6-3.8,3.1-5.8,4.7c2.4,1.7,4.8,3.3,7.2,4.9  C571.2,117.7,573,116,574.8,114.4z M580.2,126.5c1.8,1.2,3.5,2.3,5.3,3.5l4.7-4.6l-4.6-3.3L580.2,126.5z"></path>
<path class="st7" d="M574.8,114.4c-1.8,1.7-3.6,3.3-5.3,5c3.6,2.4,7.2,4.8,10.8,7.2l5.3-4.4C582,119.5,578.4,116.9,574.8,114.4  L574.8,114.4z M562.3,114.4c-2.7-1.9-5.3-3.8-7.8-5.8l-5.8,5c2.3,2.1,4.6,4.1,6.9,6.3L562.3,114.4z M569.4,119.3  c-2.4-1.6-4.8-3.2-7.2-4.9l-6.8,5.6c2.2,2.1,4.4,4.2,6.5,6.3C564.5,124,567,121.7,569.4,119.3z"></path>
<path class="st37" d="M569.4,119.3c-2.5,2.3-4.9,4.7-7.4,7c2.8,2.8,5.5,5.6,8.2,8.5c3.3-2.8,6.7-5.5,10-8.3  C576.6,124.1,573,121.7,569.4,119.3L569.4,119.3z"></path>
<path class="st7" d="M570.3,134.8c1.7,1.8,3.3,3.6,4.9,5.4l10.3-10.2c-1.7-1.2-3.5-2.3-5.3-3.5C576.9,129.3,573.6,132.1,570.3,134.8  L570.3,134.8z"></path>
<path class="st38" d="M520.1,153.4c1.8-1.6,6.1-0.6,9.9,2.5c4.1,3.2,6.1,7.4,4.5,9.4c-0.1,0.1-0.2,0.2-0.3,0.3  c-1.8,1.6-6.1,0.6-9.9-2.5c-4-3.2-6.1-7.4-4.5-9.4C519.9,153.5,520,153.4,520.1,153.4L520.1,153.4z"></path>
<path class="st39" d="M532.8,160.1c-0.9-1.4-2-2.7-3.3-3.7c-3.2-2.5-6.7-3.3-8.2-2c-0.1,0.1-0.2,0.2-0.2,0.2c-0.9,1.1-0.4,3,1,5  C525.4,161.2,529,160.8,532.8,160.1L532.8,160.1z"></path>
<path class="st30" d="M522.1,159.6c0.8,1,1.7,2,2.7,2.8c3.2,2.5,6.7,3.3,8.2,2c0.1-0.1,0.2-0.2,0.2-0.2c0.7-0.9,0.5-2.5-0.4-4.1  C529.1,160.8,525.4,161.2,522.1,159.6z"></path>
<g>
	<circle class="st40" cx="241.2" cy="225.9" r="64.4"></circle>
	<path class="st40" d="M160.3,270.1c-2.8-0.2-54.8,0.7-61.8-0.8c-7.5-1.6-11.7-8.9-10.4-24c0.3-4-1.8-7-8.7-6   c-10.7,1.6-23.5-1.6-12.6-15.7c9.2-11.9,25.1-20.4,35.8-22.3c21.5-3.8,10.5,30.4,15,39c1.5,2.8,18.5,1.8,20.8,1.8 M100.4,326.8   c2.3-10.7,0-13.8,8.6-19.2s39.8-23.3,51.2-25.7s19.1-3,30.4,2.7s76.8,30.8,87.7,32.3c10.5,1.5,24.1-2.9,27.9-6.6"></path>
	<path class="st40" d="M177.4,215.1c-2.3,1.1-38.2,19.7-40.8,21.5c1.5,3.3,8.3,18.5,9.3,20.7c3.5,0.9,39.9,1.4,40.2,1.9    M136.5,237.7l41.3,0.8 M278.5,308.3c-0.4-29.7,41-60.5,57-18 M65.1,326.2c0.9-7.5,2.2-14.9,3.9-22.2c1-3.8,2.7-5.8,6.7-8.1   c7.1-4.2,46.8-25.7,47.8-25.7 M104.4,279.9c-2.8,6.3-1.1,23.8,7.2,25.8 M91.1,264c0.4-15,20.8-26.1,25.9-25 M208.3,326.2   c-0.5-4.6-1-33.2-0.7-34.4 M239.9,326.2c-2.1-3.6-11-21.8-11-25.2 M259.2,288c3,0.7,22.3,3.2,23.6,3 M334.4,257   c-4.2,0.3-36.4,0.6-37.6,0.6 M242.4,199.9c1.8-8-0.9-18.9-3.6-18.9c-8.6-0.1-24.8,13.8-27.6,23.4 M276.7,210.3   c6.1-6,17.4-8.1,20.1-7.1c1.9,0.7,1,11.6-1.5,18.4 M331.5,264.8c6.5-23.8,38.6-35.8,43.5-9.7"></path>
	<path class="st40" d="M341.5,264.8c3.4,0.4,24.5,4.6,34.5-2.6c6.5-4.7,0.4-9.2-6.8-5.7 M300.9,272.2c-2.6,0-9.3-0.6-13.9-1.1    M324.7,274c2,0.2,11.2,1.1,12.6,1.1 M296.8,203.2c-1.6-3.6-16-9.5-22.8-7.5c0,0-11.6-11.8-32.7-11.7 M292.8,216.3   c13.5,20.3-1.8,37.3-8.1,53.1 M349.1,265.9c-2.4,2.1-15.9,11.9-18.8,14.2 M280.8,317.2c10.1-1.8,12.2-23.6,16-26.2s12.3,7.5,18.8,9   c10.3,2.4,18.6-0.3,22.9-4.1c3.5-3.1,0.5-8-9.2-4.9 M238.8,181c-4-1-20.3-1.1-29.3,10.7c-31.7,11.5-32.4,66.8-9.9,83.4"></path>
	<path class="st40" d="M206.4,280.1c-3.1-5.5,1.1-9,1.9-10.6c2.6-5.7,0.1-15.3,3.2-21.1c5.4-10.3,23-8.9,31.5-3.2   c17.9,12.1,30.4,7.4,38.5,1.5c7.6-5.6,11.7-5.2,9.3,2.5c-1.9,6.4-6.9,11.8-6.2,15.7s-0.2,8.8-3.4,11.5"></path>
	
		<ellipse transform="matrix(0.9975 -7.114793e-02 7.114793e-02 0.9975 -19.154 18.6851)" class="st40" cx="252.7" cy="278.2" rx="4.3" ry="3.1"></ellipse>
	<path class="st40" d="M266.1,313.6c-2.8-7.9,5.7-23,11.7-23 M323.4,273c-1.8-6.6,1.3-13.8,4.7-15.8 M208.3,322.3   c3.8-5.1,21.9-8.8,27.4-4.3"></path>
	<circle class="st40" cx="451.5" cy="208.3" r="59.3"></circle>
	<path class="st40" d="M413.1,253.6c-8.6-12.9-11.1-32-2.8-51.8c2-4.7,5.3-8.8,9.6-11.6c3.3-7.7,10.9-10.5,14.7-11.2   c4.2,1.8,7.7,8.3,8.2,12.7 M423.7,195.8c0.4-3.2,3.9-11.5,11-16.8 M488.4,254.8c2.6-2.2,7.8-10.4,5.1-16.6   c-2.9-6.7,6.4-32-4.5-38.8c0.6-4.6,1.2-11.3-1.3-15.3c-4.4-1.3-12.2,2.3-16,4.8c-7.8-3.7-16.3-6.7-31-4.8 M474,194.8   c3.2-6,12.1-11.6,13.7-10.8"></path>
	<path class="st40" d="M422.6,260.1c-4.1-5.3-2.7-9.5-1.4-13.1s-2.8-12.3-1.3-19.2c2.1-9.6,12.5-12.4,18.3-12.4   c7.8,0,22.1,7.2,28.5,6.7c6.4-0.7,12.7-2.7,18.3-5.8c4.7-2.6,7.3,2.8,5.8,9.5c-2.3,10.5,3.6,10.6,3.3,17 M476.6,268.8   c3.4,5.1,18.9,13,33.4,8.1c15.6-5.3,2.8-11.1-6.6-7.5 M472.3,274.6c7.3-33,36.2-27.1,40.5-6.3 M416.6,298.4   c1.9-33.2,37.2-24.6,33-1.8 M464.1,271.4c1.3,0.4,4,2.3,4,5"></path>
	<path class="st40" d="M429.2,263.3c-0.3,3.1,2.2,5.3,4.6,6.8c3.8,2.8,22.5,7.4,30.8,0.9c1.9-1.6,3.6-4.2,3.6-5.9 M418.7,296.7   c3,4,18,11.6,30.9,7c11.7-4.2,1.9-9.7-7.4-5.7 M431,268.3c-4.7,1.8-8.6,9.9-8.7,13.5 M598.6,277.5c-32.7-0.7-58.8-27.7-58.1-60.5   s27.7-58.8,60.5-58.1c32.7,0.7,58.8,27.7,58.1,60.5c-0.3,13-4.8,25.5-12.8,35.7"></path>
	<path class="st40" d="M669.3,273.6c-0.4-5.1-1.2-18.4-2.2-23.5c-5.1,0.7-43.5,11.2-48,13.5c-2.7,5-5,10.2-7,15.5   c3,5.4,19.2,37.9,20.2,40.6c4.5-1.6,36.4-17.1,38.1-17.6c0-0.9,0.3-3.7,0.3-5.1"></path>
	<path class="st40" d="M632.3,319.7l3.4-7L619,263.6 M669.9,297.5L635.6,313 M630.9,265.5c1-0.5,15.6-5.5,17.5-6   c1,2.3,3.9,11,4.5,13c-1.5,0.8-14.8,6.7-16,7.2C635.1,275.9,630.7,265.1,630.9,265.5z M686.6,326.3c1-10.5-4.6-29.9-21.6-30.2   c-8.2-3.5-5.9-17.5,4-19.1c25.2,1.4,48.6,25.8,45.8,50.2"></path>
	<path class="st40" d="M670.7,276.5c0-1.9-2.4-4.9-7.3-4.9c-17.2,0-18,26.5-4.3,28.6c4.7,0.7,7.9-2.1,9.9-3.6 M676.8,300.3   c-2.2-5.9,4.2-16.6,13.6-16.6 M686.4,319.2c4-11,23.9-10.4,27.2-6.3 M673.7,327.2c-3.2-3.8-7.7-19.4-7.7-23.1 M617.2,325.6   c-1.1-4-8.1-31.9-7.3-34.9c-3.8,11.4-11.1,29.6-35.5,29.6c-37,0-48.5-15.1-51.8-30.9c-1.1-5.2-0.2-11.8,8.3-9.6   c13.7-3.4,25,7.9,27.5,11.9"></path>
	<path class="st40" d="M615.1,271.6c-4.3-3.9-12.6-2.9-17.5,8.2c-2,4.6-9.8,17.3-14.4,18.1c-5.7,1.1-24.7-6.2-29.8-7.2 M592.9,277   c5.9-22.1,43.8-31.5,55-24.1 M573.6,296.6c-6,0.9-13.5,17.4-6.6,23.4"></path>
	<ellipse class="st40" cx="464.1" cy="250.7" rx="4" ry="1.9"></ellipse>
	<path class="st40" d="M641.8,250.1c21.9-27-4.1-88.6-61.1-58.5c-6.3-3.9-13.7-5.4-21-4.2c-6.4,4.4-7,20.8-7,24.9"></path>
	<path class="st40" d="M597.4,185.1c2.5-3.3,7-7.6,10.5-8.8c6.2,1.6,11.8,5.1,16,10 M556.5,207.1c-2.4,2.2-9.7,12.8-5.7,22.8   s10.4,22.6,11,28.5c0.6,5.9,8.8,11.3,12.6,13.5"></path>
</g>
</svg>